<?xml version="1.0" encoding="utf-8"?>
<!-- Generator: Adobe Illustrator 16.0.0, SVG Export Plug-In . SVG Version: 6.00 Build 0)  -->
<!DOCTYPE svg PUBLIC "-//W3C//DTD SVG 1.1//EN" "http://www.w3.org/Graphics/SVG/1.1/DTD/svg11.dtd">
<svg version="1.1" id="Layer_1" xmlns="http://www.w3.org/2000/svg" xmlns:xlink="http://www.w3.org/1999/xlink" x="0px" y="0px"
	 width="272.238px" height="72.373px" viewBox="0 0 272.238 72.373" enable-background="new 0 0 272.238 72.373"
	 xml:space="preserve">
<g>
	<path fill="#E62C29" stroke="#E52420" stroke-width="2" stroke-miterlimit="10" d="M25.914,18.766l1.664,0.023
		c4.563,0.109,7.734,0.961,9.516,2.555c1.547,1.375,2.32,3.438,2.32,6.188c0,1.391-0.426,2.805-1.277,4.242
		s-1.926,2.633-3.223,3.586c1.953,0.313,3.609,1.23,4.969,2.754s2.039,3.434,2.039,5.73c0,7.016-5.188,10.523-15.563,10.523
		c-2.781,0-6.023-0.258-9.727-0.773c-0.672-0.094-1.109-0.969-1.313-2.625c-0.063-0.484-0.094-1.008-0.094-1.57l0.281-15.469
		c0-6.094-0.305-9.602-0.914-10.523c-0.297-0.422-0.82-0.664-1.57-0.727c-0.219-0.531-0.328-1.09-0.328-1.676
		s0.016-0.949,0.047-1.09V19.75c1.172-0.25,3.035-0.477,5.59-0.68S23.414,18.766,25.914,18.766z M30.789,34.586
		c1.438-2.125,2.156-4.148,2.156-6.07s-0.594-3.422-1.781-4.5s-3.039-1.617-5.555-1.617c-1.219,0-2.484,0.125-3.797,0.375
		c0.359,1.672,0.563,3.281,0.609,4.828s0.074,2.969,0.082,4.266s0.02,2.281,0.035,2.953c2.188-0.188,3.891-0.281,5.109-0.281
		S29.914,34.555,30.789,34.586z M22.375,45.578l-0.047,1.641c0,1.828,0.32,2.945,0.961,3.352c1.047,0.109,1.996,0.164,2.848,0.164
		s1.656-0.055,2.414-0.164s1.516-0.313,2.273-0.609s1.402-0.68,1.934-1.148c1.188-1.078,1.781-2.633,1.781-4.664
		c0-3.984-2.828-5.977-8.484-5.977c-1.078,0-2.25,0.07-3.516,0.211C22.539,40.227,22.484,42.625,22.375,45.578z"/>
	<path fill="#E62C29" stroke="#E52420" stroke-width="2" stroke-miterlimit="10" d="M57.063,48.836
		c1.531,1.422,3.32,2.133,5.367,2.133s4.109-0.883,6.188-2.648c0.781,0.516,1.258,1.125,1.43,1.828
		c-1.438,1.672-3.563,2.867-6.375,3.586c-1.141,0.297-2.457,0.445-3.949,0.445s-3.035-0.27-4.629-0.809s-3.02-1.324-4.277-2.355
		s-2.254-2.387-2.988-4.066s-1.102-3.543-1.102-5.59s0.375-3.902,1.125-5.566s1.742-3.027,2.977-4.09
		c2.578-2.234,5.531-3.352,8.859-3.352c2.922,0,5.453,0.789,7.594,2.367c1.031,0.781,1.855,1.793,2.473,3.035
		s0.925,2.645,0.925,4.207c0,2.672-0.882,4.078-2.648,4.219l-13.969,1.055C54.531,45.547,55.531,47.414,57.063,48.836z
		 M62.828,32.898c-1.031-1.047-2.383-1.57-4.055-1.57s-2.938,0.785-3.797,2.355s-1.289,3.746-1.289,6.527
		c3.891-0.422,7.406-0.867,10.547-1.336c0.094-0.563,0.141-1.102,0.141-1.617C64.375,35.398,63.859,33.945,62.828,32.898z"/>
	<path fill="#E62C29" stroke="#E52420" stroke-width="2" stroke-miterlimit="10" d="M88.375,48.648
		c0.563,0.516,0.883,1.047,0.961,1.594c-2.063,2.625-4.445,3.938-7.148,3.938c-1.766,0-3.016-0.703-3.75-2.109
		c-0.625-1.234-1.008-3.352-1.148-6.352c-0.125-4.688-0.188-9.055-0.188-13.102c-1.594-0.063-2.57-0.141-2.93-0.234
		c-0.078-0.125-0.117-0.586-0.117-1.383s0.039-1.234,0.117-1.313l2.977-0.281c0-0.328,0.047-1.898,0.141-4.711
		c0.781-0.797,1.926-1.41,3.434-1.84s2.848-0.645,4.02-0.645c-0.219,1.984-0.398,4.383-0.539,7.195
		c0.516,0.016,2.07,0.109,4.664,0.281c0.078,0.266,0.117,0.773,0.117,1.523s-0.039,1.203-0.117,1.359
		c-1.438,0.188-3.039,0.305-4.805,0.352c-0.063,1.859-0.094,4.207-0.094,7.043s0.063,5.512,0.188,8.027
		c0.047,0.969,0.535,1.453,1.465,1.453S87.468,49.18,88.375,48.648z"/>
	<path fill="#FFFFFF" stroke="#FFFFFF" stroke-width="2" stroke-miterlimit="10" d="M116.64,22.164
		c0.031-0.25,0.047-0.664,0.047-1.242s-0.141-1.078-0.422-1.5c0-0.156,0.227-0.301,0.68-0.434s0.914-0.199,1.383-0.199
		c1.391,0,2.441,0.441,3.152,1.324s1.066,1.969,1.066,3.258s-0.52,3.273-1.559,5.953s-2.609,6.445-4.711,11.297
		s-3.887,9.324-5.355,13.418c-0.578,0.063-1.203,0.094-1.875,0.094c-1.922,0-3.133-0.336-3.633-1.008
		c-0.281-0.391-1.516-3.719-3.703-9.984c-4.125-11.813-6.922-18.18-8.391-19.102c-0.344-0.188-0.672-0.293-0.984-0.316
		s-0.574-0.043-0.785-0.059s-0.34-0.023-0.387-0.023c-0.313-0.781-0.43-1.438-0.352-1.969c2.375-1.328,5.016-1.992,7.922-1.992
		c0.453,0,0.789,0.008,1.008,0.023c0.516,0.531,1.762,3.59,3.738,9.176s4.043,11.824,6.199,18.715
		C114.164,32.203,116.484,23.727,116.64,22.164z"/>
	<path fill="#FFFFFF" stroke="#FFFFFF" stroke-width="2" stroke-miterlimit="10" d="M128.64,34.586c0-1.188-0.414-1.891-1.242-2.109
		c-0.531-0.172-1.281-0.297-2.25-0.375c-0.109-0.469-0.164-0.824-0.164-1.066s0.008-0.434,0.023-0.574
		c2.25-1.266,5.07-1.898,8.461-1.898c0.547,0,0.953,0.008,1.219,0.023c0.438,0.688,0.742,2.031,0.914,4.031
		c0.125,0.906,0.188,2.273,0.188,4.102s-0.063,7.391-0.188,16.688c-1.734,0.297-3.176,0.445-4.324,0.445s-2.121-0.148-2.918-0.445
		c0.281-3.766,0.422-7.137,0.422-10.113S128.734,37.414,128.64,34.586z M129.273,17.453c0.922-0.781,1.922-1.172,3-1.172
		s1.969,0.332,2.672,0.996S136,18.875,136,20.078s-0.453,2.215-1.359,3.035s-1.941,1.23-3.105,1.23s-2.078-0.359-2.742-1.078
		s-0.996-1.641-0.996-2.766S128.289,18.359,129.273,17.453z"/>
	<path fill="#FFFFFF" stroke="#FFFFFF" stroke-width="2" stroke-miterlimit="10" d="M142.796,45.906
		c0.359-0.063,0.879-0.094,1.559-0.094s1.582,0.273,2.707,0.82c-0.016,0.125-0.023,0.359-0.023,0.703s0.082,0.766,0.246,1.266
		s0.418,0.961,0.762,1.383c0.75,0.938,1.984,1.406,3.703,1.406s2.844-0.578,3.375-1.734c0.453-1.063,0.375-2.164-0.234-3.305
		c-0.453-0.844-1.664-1.648-3.633-2.414c-0.328-0.125-0.781-0.297-1.359-0.516c-5.188-1.859-7.813-4.547-7.875-8.063
		c0-1.594,0.445-2.938,1.336-4.031c1.688-2.047,4.539-3.07,8.555-3.07c2.641,0,4.871,0.547,6.691,1.641s2.73,2.438,2.73,4.031
		c0,1.781-0.867,2.672-2.602,2.672c-1.234,0-2.102-0.137-2.602-0.41s-0.75-0.426-0.75-0.457c0-0.094,0-0.18,0-0.258
		c0-2.922-1.422-4.383-4.266-4.383c-0.984,0-1.762,0.254-2.332,0.762s-0.855,1.25-0.855,2.227s0.348,1.785,1.043,2.426
		s2.039,1.359,4.031,2.156s3.27,1.336,3.832,1.617c3.516,1.703,5.273,3.906,5.273,6.609c0,2.344-0.988,4.145-2.965,5.402
		s-4.605,1.887-7.887,1.887c-2.172,0-3.813-0.188-4.922-0.563s-1.949-0.719-2.52-1.031s-1.039-0.641-1.406-0.984
		s-0.676-0.703-0.926-1.078c-0.672-0.984-0.867-1.984-0.586-3C141.132,46.664,141.765,46.125,142.796,45.906z"/>
	<path fill="#FFFFFF" stroke="#FFFFFF" stroke-width="2" stroke-miterlimit="10" d="M169.14,34.586c0-1.188-0.414-1.891-1.242-2.109
		c-0.531-0.172-1.281-0.297-2.25-0.375c-0.109-0.469-0.164-0.824-0.164-1.066s0.008-0.434,0.023-0.574
		c2.25-1.266,5.07-1.898,8.461-1.898c0.547,0,0.953,0.008,1.219,0.023c0.438,0.688,0.742,2.031,0.914,4.031
		c0.125,0.906,0.188,2.273,0.188,4.102s-0.063,7.391-0.188,16.688c-1.734,0.297-3.176,0.445-4.324,0.445s-2.121-0.148-2.918-0.445
		c0.281-3.766,0.422-7.137,0.422-10.113S169.234,37.414,169.14,34.586z M169.773,17.453c0.922-0.781,1.922-1.172,3-1.172
		s1.969,0.332,2.672,0.996s1.055,1.598,1.055,2.801s-0.453,2.215-1.359,3.035s-1.941,1.23-3.105,1.23s-2.078-0.359-2.742-1.078
		s-0.996-1.641-0.996-2.766S168.789,18.359,169.773,17.453z"/>
	<path fill="#FFFFFF" stroke="#FFFFFF" stroke-width="2" stroke-miterlimit="10" d="M208.937,40.609
		c0,2.047-0.367,3.969-1.102,5.766s-1.773,3.266-3.117,4.406c-2.703,2.297-6.273,3.445-10.711,3.445
		c-2.219,0-4.266-0.523-6.141-1.57s-3.367-2.512-4.477-4.395s-1.664-4.133-1.664-6.75s0.672-4.973,2.016-7.066
		c2.641-4.125,7.07-6.188,13.289-6.188c3.125,0,5.867,1.07,8.227,3.211C207.71,33.703,208.937,36.75,208.937,40.609z M188.64,41.289
		c0,2.672,0.773,5.008,2.32,7.008s3.359,3,5.438,3c3.844,0,5.766-3.133,5.766-9.398c0-3.109-0.711-5.633-2.133-7.57
		s-3.234-2.906-5.438-2.906c-1.109,0-2.07,0.281-2.883,0.844s-1.43,1.32-1.852,2.273C189.046,36.367,188.64,38.617,188.64,41.289z"
		/>
	<path fill="#FFFFFF" stroke="#FFFFFF" stroke-width="2" stroke-miterlimit="10" d="M233.476,48.273l0.234-8.93
		c0-2.031-0.066-3.313-0.199-3.844s-0.301-0.93-0.504-1.195c-0.438-0.547-1.078-0.82-1.922-0.82s-1.563,0.094-2.156,0.281
		c-1.219,0.406-2.781,1.547-4.688,3.422c0,2.031-0.047,7.438-0.141,16.219c-1.734,0.297-3.18,0.445-4.336,0.445
		s-2.133-0.148-2.93-0.445c0.281-3.797,0.422-7.301,0.422-10.512s-0.039-5.98-0.117-8.309c0-1.188-0.422-1.891-1.266-2.109
		c-0.531-0.172-1.281-0.297-2.25-0.375c-0.094-0.406-0.141-0.73-0.141-0.973s0.031-0.465,0.094-0.668
		c2.25-1.266,5.047-1.898,8.391-1.898c0.547,0,0.953,0.008,1.219,0.023c0.609,1.047,0.945,2.844,1.008,5.391
		c2.922-3.75,6.344-5.625,10.266-5.625c1.813,0,3.23,0.613,4.254,1.84s1.605,2.887,1.746,4.98c0.063,0.953,0.094,1.906,0.094,2.859
		s-0.047,1.984-0.141,3.094c-0.266,3.375-0.398,5.961-0.398,7.758c0,0.406,0.289,0.719,0.867,0.938s1.145,0.328,1.699,0.328
		s0.934-0.031,1.137-0.094c0.188,0.422,0.281,0.809,0.281,1.16s-0.016,0.59-0.047,0.715c-2.922,1.516-5.102,2.273-6.539,2.273
		s-2.453-0.488-3.047-1.465S233.476,50.273,233.476,48.273z"/>
</g>
<g>
	<path fill="#FFFFFF" stroke="#FFFFFF" stroke-width="0.75" stroke-miterlimit="10" d="M256.267,55.016
		c-0.238-0.292-0.359-0.599-0.359-0.922c0-0.323,0.104-0.592,0.309-0.809c0.207-0.216,0.492-0.324,0.859-0.324
		s0.676,0.14,0.926,0.418c0.25,0.279,0.375,0.585,0.375,0.918c0,0.333-0.102,0.613-0.309,0.84c-0.205,0.227-0.486,0.34-0.844,0.34
		C256.869,55.477,256.548,55.324,256.267,55.016z"/>
	<path fill="#FFFFFF" stroke="#FFFFFF" stroke-width="0.75" stroke-miterlimit="10" d="M251.962,43.368
		c0.793,0,1.188,0.412,1.188,1.234c0,0.281-0.031,0.484-0.098,0.609c-0.064,0.125-0.102,0.188-0.113,0.188
		c-0.098-0.016-0.199-0.023-0.305-0.023c-0.488,0-0.879,0.158-1.168,0.473c-0.289,0.315-0.434,0.738-0.434,1.27
		s0.229,0.958,0.684,1.281c0.457,0.323,1.164,0.484,2.121,0.484c0.959,0,1.805-0.277,2.539-0.832s1.102-1.173,1.102-1.855
		c0-0.588-0.236-1.177-0.711-1.766c-0.109-0.135-0.238-0.271-0.391-0.406c0.074-0.114,0.176-0.233,0.309-0.355
		c0.133-0.122,0.26-0.196,0.379-0.223c0.328,0.245,0.645,0.615,0.945,1.109c0.406,0.677,0.609,1.425,0.609,2.242
		c0,0.818-0.172,1.562-0.516,2.23c-0.344,0.669-0.836,1.197-1.477,1.582c-0.641,0.386-1.369,0.578-2.188,0.578
		c-1.572,0-2.785-0.581-3.641-1.742c-0.547-0.745-0.82-1.651-0.82-2.719c0-0.901,0.195-1.685,0.586-2.352
		c0.178-0.302,0.389-0.544,0.633-0.727C251.443,43.467,251.697,43.373,251.962,43.368z"/>
	<path fill="#FFFFFF" stroke="#FFFFFF" stroke-width="0.75" stroke-miterlimit="10" d="M254.095,33.016
		c0.684,0,1.324,0.123,1.922,0.367c0.6,0.245,1.09,0.591,1.469,1.039c0.766,0.901,1.148,2.091,1.148,3.57
		c0,0.74-0.174,1.422-0.523,2.047c-0.348,0.625-0.836,1.123-1.465,1.492c-0.627,0.37-1.377,0.555-2.25,0.555
		c-0.871,0-1.656-0.224-2.355-0.672c-1.375-0.88-2.063-2.356-2.063-4.43c0-1.042,0.357-1.956,1.07-2.742
		C251.794,33.425,252.81,33.016,254.095,33.016z M254.322,39.782c0.891,0,1.67-0.258,2.336-0.773c0.668-0.516,1-1.12,1-1.813
		c0-1.281-1.043-1.922-3.133-1.922c-1.035,0-1.877,0.237-2.523,0.711c-0.645,0.474-0.969,1.078-0.969,1.813
		c0,0.37,0.094,0.69,0.281,0.961c0.188,0.271,0.441,0.477,0.758,0.617C252.681,39.646,253.431,39.782,254.322,39.782z"/>
	<path fill="#FFFFFF" stroke="#FFFFFF" stroke-width="0.75" stroke-miterlimit="10" d="M254.314,24.782l-0.477-0.008
		c-0.859,0-1.434,0.077-1.727,0.23c-0.291,0.154-0.438,0.441-0.438,0.863c0,0.255,0.094,0.534,0.277,0.836
		c0.186,0.302,0.48,0.695,0.887,1.18c0.318-0.005,1.064-0.008,2.238-0.008c1.176,0,2.266,0.003,3.27,0.008
		c0.109,0.547,0.164,1.021,0.164,1.422c0,0.401-0.049,0.732-0.148,0.992c-1.182-0.067-2.256-0.102-3.223-0.102
		c-0.965,0-1.977,0.019-3.035,0.055c-0.395,0-0.625,0.146-0.688,0.438c-0.057,0.177-0.098,0.427-0.125,0.75
		c-0.031,0.005-0.068,0.012-0.113,0.02c-0.043,0.008-0.078,0.015-0.105,0.02c-0.072,0.011-0.135,0.016-0.188,0.016
		c-0.051,0-0.098-0.002-0.141-0.008c-0.447-0.776-0.672-1.711-0.672-2.805c0-0.099,0.006-0.242,0.016-0.43
		c0.188-0.12,0.463-0.2,0.824-0.242c0.363-0.042,0.617-0.073,0.762-0.094c-0.822-0.901-1.332-1.68-1.531-2.336
		c-0.088-0.302-0.133-0.596-0.133-0.883c0-0.286,0.027-0.543,0.082-0.77s0.143-0.438,0.262-0.637
		c0.256-0.417,0.686-0.646,1.289-0.688c-1.088-0.958-1.633-2.018-1.633-3.18c0-0.651,0.168-1.161,0.5-1.531
		c0.375-0.406,1.107-0.609,2.195-0.609c0.449,0,1.086,0.037,1.91,0.109c0.826,0.073,1.572,0.109,2.238,0.109
		c0.137,0,0.24-0.096,0.313-0.289c0.074-0.192,0.109-0.381,0.109-0.566c0-0.185-0.01-0.311-0.031-0.379
		c0.162-0.067,0.295-0.102,0.398-0.102c0.105,0,0.18,0.008,0.227,0.023c0.531,0.849,0.797,1.55,0.797,2.102
		c0,0.901-0.719,1.352-2.156,1.352l-2.773-0.102c-0.791,0-1.33,0.068-1.617,0.203c-0.285,0.136-0.43,0.38-0.43,0.734
		c0,0.672,0.316,1.375,0.945,2.109c3.266-0.031,5.129-0.078,5.586-0.141c0.156,0.558,0.234,1.009,0.234,1.355
		c0,0.347-0.041,0.705-0.125,1.074c-0.104,0.005-0.268,0.008-0.492,0.008L254.314,24.782z"/>
</g>
</svg>
